<svg width="24" height="24" viewBox="0 0 24 24" fill="none" xmlns="http://www.w3.org/2000/svg">
<path d="M9 10.75C7.48 10.75 6.25 9.52 6.25 8C6.25 6.48 7.48 5.25 9 5.25C10.52 5.25 11.75 6.48 11.75 8C11.75 9.52 10.52 10.75 9 10.75ZM9 6.75C8.31 6.75 7.75 7.31 7.75 8C7.75 8.69 8.31 9.25 9 9.25C9.69 9.25 10.25 8.69 10.25 8C10.25 7.31 9.69 6.75 9 6.75Z" fill="white"/>
<path d="M15 22.75H9C3.57 22.75 1.25 20.43 1.25 15V9C1.25 3.57 3.57 1.25 9 1.25H13C13.41 1.25 13.75 1.59 13.75 2C13.75 2.41 13.41 2.75 13 2.75H9C4.39 2.75 2.75 4.39 2.75 9V15C2.75 19.61 4.39 21.25 9 21.25H15C19.61 21.25 21.25 19.61 21.25 15V10C21.25 9.59 21.59 9.25 22 9.25C22.41 9.25 22.75 9.59 22.75 10V15C22.75 20.43 20.43 22.75 15 22.75Z" fill="white"/>
<path d="M17.4595 7.20219C17.2695 7.20219 17.0795 7.13219 16.9295 6.98219L15.4695 5.52219C15.1795 5.23219 15.1795 4.75219 15.4695 4.46219C15.7595 4.17219 16.2395 4.17219 16.5295 4.46219L17.4595 5.39219L20.8295 2.02219C21.1195 1.73219 21.5995 1.73219 21.8895 2.02219C22.1795 2.31219 22.1795 2.79219 21.8895 3.08219L17.9895 6.98219C17.8495 7.13219 17.6495 7.20219 17.4595 7.20219Z" fill="white"/>
<path d="M2.67075 19.7025C2.43075 19.7025 2.19075 19.5825 2.05075 19.3725C1.82075 19.0325 1.91075 18.5625 2.26075 18.3325L7.19075 15.0225C8.27075 14.2925 9.76075 14.3825 10.7407 15.2125L11.0707 15.5025C11.5707 15.9325 12.4207 15.9325 12.9107 15.5025L17.0707 11.9325C18.1307 11.0225 19.8007 11.0225 20.8707 11.9325L22.5007 13.3325C22.8107 13.6025 22.8507 14.0725 22.5807 14.3925C22.3107 14.7025 21.8407 14.7425 21.5207 14.4725L19.8907 13.0725C19.3907 12.6425 18.5407 12.6425 18.0407 13.0725L13.8807 16.6425C12.8207 17.5525 11.1507 17.5525 10.0807 16.6425L9.75075 16.3525C9.29075 15.9625 8.53075 15.9225 8.02075 16.2725L3.09075 19.5825C2.96075 19.6625 2.81075 19.7025 2.67075 19.7025Z" fill="white"/>
</svg>
